<svg width="32" height="32" viewBox="0 0 32 32" fill="none" xmlns="http://www.w3.org/2000/svg">
<path d="M15.9989 29.9978C25.3333 29.9978 29.9978 23.7303 29.9978 15.9989C29.9978 8.26751 25.3333 2 15.9989 2C6.66443 2 2 8.26751 2 15.9989C2 23.7303 6.66443 29.9978 15.9989 29.9978Z" fill="url(#paint0_radial_147_690)"></path>
<path d="M15.9989 29.9978C25.3333 29.9978 29.9978 23.7303 29.9978 15.9989C29.9978 8.26751 25.3333 2 15.9989 2C6.66443 2 2 8.26751 2 15.9989C2 23.7303 6.66443 29.9978 15.9989 29.9978Z" fill="url(#paint1_radial_147_690)"></path>
<path d="M15.9989 29.9978C25.3333 29.9978 29.9978 23.7303 29.9978 15.9989C29.9978 8.26751 25.3333 2 15.9989 2C6.66443 2 2 8.26751 2 15.9989C2 23.7303 6.66443 29.9978 15.9989 29.9978Z" fill="url(#paint2_radial_147_690)"></path>
<path d="M15.9989 29.9978C25.3333 29.9978 29.9978 23.7303 29.9978 15.9989C29.9978 8.26751 25.3333 2 15.9989 2C6.66443 2 2 8.26751 2 15.9989C2 23.7303 6.66443 29.9978 15.9989 29.9978Z" fill="url(#paint3_radial_147_690)" fill-opacity="0.6"></path>
<path d="M15.9989 29.9978C25.3333 29.9978 29.9978 23.7303 29.9978 15.9989C29.9978 8.26751 25.3333 2 15.9989 2C6.66443 2 2 8.26751 2 15.9989C2 23.7303 6.66443 29.9978 15.9989 29.9978Z" fill="url(#paint4_radial_147_690)"></path>
<path d="M15.9989 29.9978C25.3333 29.9978 29.9978 23.7303 29.9978 15.9989C29.9978 8.26751 25.3333 2 15.9989 2C6.66443 2 2 8.26751 2 15.9989C2 23.7303 6.66443 29.9978 15.9989 29.9978Z" fill="url(#paint5_radial_147_690)"></path>
<path d="M15.9989 29.9978C25.3333 29.9978 29.9978 23.7303 29.9978 15.9989C29.9978 8.26751 25.3333 2 15.9989 2C6.66443 2 2 8.26751 2 15.9989C2 23.7303 6.66443 29.9978 15.9989 29.9978Z" fill="url(#paint6_radial_147_690)"></path>
<path d="M15.9989 29.9978C25.3333 29.9978 29.9978 23.7303 29.9978 15.9989C29.9978 8.26751 25.3333 2 15.9989 2C6.66443 2 2 8.26751 2 15.9989C2 23.7303 6.66443 29.9978 15.9989 29.9978Z" fill="url(#paint7_radial_147_690)"></path>
<defs>
<radialGradient id="paint0_radial_147_690" cx="0" cy="0" r="1" gradientUnits="userSpaceOnUse" gradientTransform="translate(25.5 9) rotate(132.839) scale(37.5033)">
<stop stop-color="#FFF478"></stop>
<stop offset="0.474827" stop-color="#FFB02E"></stop>
<stop offset="1" stop-color="#F70A8D"></stop>
</radialGradient>
<radialGradient id="paint1_radial_147_690" cx="0" cy="0" r="1" gradientUnits="userSpaceOnUse" gradientTransform="translate(25.5 9) rotate(131.878) scale(38.9487)">
<stop stop-color="#FFF478"></stop>
<stop offset="0.474827" stop-color="#FFB02E"></stop>
<stop offset="1" stop-color="#F70A8D"></stop>
</radialGradient>
<radialGradient id="paint2_radial_147_690" cx="0" cy="0" r="1" gradientUnits="userSpaceOnUse" gradientTransform="translate(16 12.5) rotate(101.31) scale(17.8466 22.8581)">
<stop offset="0.787821" stop-color="#F59639" stop-opacity="0"></stop>
<stop offset="0.972509" stop-color="#FF7DCE"></stop>
</radialGradient>
<radialGradient id="paint3_radial_147_690" cx="0" cy="0" r="1" gradientUnits="userSpaceOnUse" gradientTransform="translate(18 14) rotate(135) scale(41.0122)">
<stop offset="0.314853" stop-opacity="0"></stop>
<stop offset="1"></stop>
</radialGradient>
<radialGradient id="paint4_radial_147_690" cx="0" cy="0" r="1" gradientUnits="userSpaceOnUse" gradientTransform="translate(16 17) rotate(77.692) scale(28.1469)">
<stop offset="0.507903" stop-color="#7D6133" stop-opacity="0"></stop>
<stop offset="1" stop-color="#715B32"></stop>
</radialGradient>
<radialGradient id="paint5_radial_147_690" cx="0" cy="0" r="1" gradientUnits="userSpaceOnUse" gradientTransform="translate(16.5 16.5) rotate(55.7131) scale(13.3135 9.65032)">
<stop stop-color="#FFB849"></stop>
<stop offset="1" stop-color="#FFB847" stop-opacity="0"></stop>
</radialGradient>
<radialGradient id="paint6_radial_147_690" cx="0" cy="0" r="1" gradientUnits="userSpaceOnUse" gradientTransform="translate(20.5 18) rotate(9.86581) scale(11.6726)">
<stop stop-color="#FFA64B"></stop>
<stop offset="0.900412" stop-color="#FFAE46" stop-opacity="0"></stop>
</radialGradient>
<radialGradient id="paint7_radial_147_690" cx="0" cy="0" r="1" gradientUnits="userSpaceOnUse" gradientTransform="translate(17.5 15) rotate(43.9708) scale(59.0529)">
<stop offset="0.185425" stop-opacity="0"></stop>
<stop offset="1" stop-opacity="0.4"></stop>
</radialGradient>
</defs>

<g filter="url(#filter0_f_147_1319)">
<path d="M9.44743 14.3275C8.95345 14.5745 8.35278 14.3743 8.10579 13.8803C7.8588 13.3863 8.05903 12.7856 8.553 12.5387L10.7595 11.4354H14.0002C13.9993 11.8133 13.7855 12.1585 13.4474 12.3275L9.44743 14.3275Z" fill="url(#paint0_radial_147_1319)" fill-opacity="0.6" style="mix-blend-mode:multiply"></path>
<path d="M9.44743 8.54329C8.95345 8.2963 8.35278 8.49653 8.10579 8.99051C7.8588 9.48448 8.05903 10.0852 8.553 10.3321L10.7595 11.4354H14.0002C13.9993 11.0575 13.7855 10.7123 13.4474 10.5433L9.44743 8.54329Z" fill="url(#paint1_radial_147_1319)" fill-opacity="0.6" style="mix-blend-mode:multiply"></path>
</g>
<path d="M9.44743 13.8899C8.95345 14.1369 8.35278 13.9367 8.10579 13.4427C7.8588 12.9487 8.05903 12.3481 8.553 12.1011L10.7595 10.9978H14.0002C13.9993 11.3757 13.7855 11.7209 13.4474 11.8899L9.44743 13.8899Z" fill="url(#paint2_linear_147_1319)"></path>
<path d="M9.44743 8.10579C8.95345 7.8588 8.35278 8.05903 8.10579 8.55301C7.8588 9.04698 8.05903 9.64766 8.553 9.89465L10.7595 10.9979H14.0002C13.9993 10.62 13.7855 10.2748 13.4474 10.1058L9.44743 8.10579Z" fill="url(#paint3_linear_147_1319)"></path>
<g filter="url(#filter1_f_147_1319)">
<path d="M21.959 14.3275C22.453 14.5745 23.0537 14.3743 23.3006 13.8803C23.5476 13.3863 23.3474 12.7856 22.8534 12.5387L20.6469 11.4354H17.4062C17.4071 11.8133 17.6209 12.1585 17.959 12.3275L21.959 14.3275Z" fill="url(#paint4_radial_147_1319)"></path>
<path d="M21.959 8.54329C22.453 8.2963 23.0537 8.49653 23.3006 8.99051C23.5476 9.48448 23.3474 10.0852 22.8534 10.3321L20.6469 11.4354H17.4062C17.4071 11.0575 17.6209 10.7123 17.959 10.5433L21.959 8.54329Z" fill="url(#paint5_radial_147_1319)"></path>
</g>
<path d="M22.5371 13.8899C23.0311 14.1369 23.6318 13.9367 23.8788 13.4427C24.1258 12.9487 23.9255 12.3481 23.4316 12.1011L21.2251 10.9978H17.9843C17.9852 11.3757 18.199 11.7209 18.5371 11.8899L22.5371 13.8899Z" fill="url(#paint6_linear_147_1319)"></path>
<path d="M22.5371 8.10579C23.0311 7.8588 23.6318 8.05903 23.8788 8.55301C24.1258 9.04698 23.9255 9.64766 23.4316 9.89465L21.2251 10.9979H17.9843C17.9852 10.62 18.199 10.2748 18.5371 10.1058L22.5371 8.10579Z" fill="url(#paint7_linear_147_1319)"></path>
<defs>
<filter id="filter0_f_147_1319" x="7.5" y="7.9375" width="7.00021" height="6.99579" filterUnits="userSpaceOnUse" color-interpolation-filters="sRGB">
<feFlood flood-opacity="0" result="BackgroundImageFix"></feFlood>
<feBlend mode="normal" in="SourceGraphic" in2="BackgroundImageFix" result="shape"></feBlend>
<feGaussianBlur stdDeviation="0.25" result="effect1_foregroundBlur_147_1319"></feGaussianBlur>
</filter>
<filter id="filter1_f_147_1319" x="16.9062" y="7.9375" width="7.00021" height="6.99579" filterUnits="userSpaceOnUse" color-interpolation-filters="sRGB">
<feFlood flood-opacity="0" result="BackgroundImageFix"></feFlood>
<feBlend mode="normal" in="SourceGraphic" in2="BackgroundImageFix" result="shape"></feBlend>
<feGaussianBlur stdDeviation="0.25" result="effect1_foregroundBlur_147_1319"></feGaussianBlur>
</filter>
<radialGradient id="paint0_radial_147_1319" cx="0" cy="0" r="1" gradientUnits="userSpaceOnUse" gradientTransform="translate(9.78125 8.4375) rotate(110.225) scale(7.59317 9.92428)">
<stop stop-color="#9F5E0F"></stop>
<stop offset="0.889024" stop-color="#9F5E0F" stop-opacity="0"></stop>
</radialGradient>
<radialGradient id="paint1_radial_147_1319" cx="0" cy="0" r="1" gradientUnits="userSpaceOnUse" gradientTransform="translate(9.78125 8.4375) rotate(110.225) scale(7.59317 9.92428)">
<stop stop-color="#9F5E0F"></stop>
<stop offset="0.889024" stop-color="#9F5E0F" stop-opacity="0"></stop>
</radialGradient>
<linearGradient id="paint2_linear_147_1319" x1="10.5783" y1="14.7322" x2="8" y2="9.38845" gradientUnits="userSpaceOnUse">
<stop offset="0.24955" stop-color="#482641"></stop>
<stop offset="0.406361" stop-color="#503A4A"></stop>
<stop offset="0.511203" stop-color="#482641"></stop>
</linearGradient>
<linearGradient id="paint3_linear_147_1319" x1="8.85959" y1="11.1385" x2="11.2502" y2="6.45102" gradientUnits="userSpaceOnUse">
<stop offset="0.24955" stop-color="#482641"></stop>
<stop offset="0.406361" stop-color="#503A4A"></stop>
<stop offset="0.511203" stop-color="#482641"></stop>
</linearGradient>
<radialGradient id="paint4_radial_147_1319" cx="0" cy="0" r="1" gradientUnits="userSpaceOnUse" gradientTransform="translate(26.8281 15.4375) rotate(-135.995) scale(13.3597 17.4611)">
<stop stop-color="#E9830A"></stop>
<stop offset="0.801655" stop-color="#F08B13" stop-opacity="0"></stop>
</radialGradient>
<radialGradient id="paint5_radial_147_1319" cx="0" cy="0" r="1" gradientUnits="userSpaceOnUse" gradientTransform="translate(26.8281 15.4375) rotate(-135.995) scale(13.3597 17.4611)">
<stop stop-color="#E9830A"></stop>
<stop offset="0.801655" stop-color="#F08B13" stop-opacity="0"></stop>
</radialGradient>
<linearGradient id="paint6_linear_147_1319" x1="21.4062" y1="14.7322" x2="23.9846" y2="9.38845" gradientUnits="userSpaceOnUse">
<stop offset="0.24955" stop-color="#482641"></stop>
<stop offset="0.406361" stop-color="#503A4A"></stop>
<stop offset="0.511203" stop-color="#482641"></stop>
</linearGradient>
<linearGradient id="paint7_linear_147_1319" x1="23.125" y1="11.1385" x2="20.7343" y2="6.45102" gradientUnits="userSpaceOnUse">
<stop offset="0.24955" stop-color="#482641"></stop>
<stop offset="0.406361" stop-color="#503A4A"></stop>
<stop offset="0.511203" stop-color="#482641"></stop>
</linearGradient>
</defs>
<parsererror style="display: block; white-space: pre; border: 2px solid #c77; padding: 0 1em 0 1em; margin: 1em; background-color: #fdd; color: black"><h3>This page contains the following errors:</h3><div style="font-family:monospace;font-size:12px">error on line 16 at column 19: Specification mandates value for attribute async
</div><h3>Below is a rendering of the page up to the first error.</h3></parsererror>
  <head>
    <meta charset="UTF-8"></meta>
    <meta name="author" content="Diu"></meta>
    <meta property="og:title" content="Fluent Emoji Maker"></meta>
    <meta property="og:image" content="https://emoji.ddiu.io/banner.png"></meta>
    <meta property="description" content="Generate your own Fluent Emojis!"></meta>
    <meta property="og:description" content="Generate your own Fluent Emojis!"></meta>
    <meta property="og:url" content="https://emoji.ddiu.io/"></meta>
    <meta name="twitter:card" content="summary_large_image"></meta>
    <meta name="twitter:creator" content="@ddiu8081"></meta>
    <link rel="icon" type="image/svg+xml" href="/favicon.svg"></link>
    <meta name="viewport" content="width=device-width, initial-scale=1.0"></meta>
    <title>Fluent Emoji Maker</title></head>
<rect x="12" y="19" width="8" height="8" rx="4" fill="url(#paint0_radial_961_3685)"></rect>
<defs>
<radialGradient id="paint0_radial_961_3685" cx="0" cy="0" r="1" gradientUnits="userSpaceOnUse" gradientTransform="translate(16 28.7778) rotate(-90) scale(9.77778)">
<stop stop-color="#F70A8D"></stop>
<stop offset="1" stop-color="#89029C"></stop>
</radialGradient>
</defs>
<parsererror style="display: block; white-space: pre; border: 2px solid #c77; padding: 0 1em 0 1em; margin: 1em; background-color: #fdd; color: black"><h3>This page contains the following errors:</h3><div style="font-family:monospace;font-size:12px">error on line 16 at column 19: Specification mandates value for attribute async
</div><h3>Below is a rendering of the page up to the first error.</h3></parsererror>
  <head>
    <meta charset="UTF-8"></meta>
    <meta name="author" content="Diu"></meta>
    <meta property="og:title" content="Fluent Emoji Maker"></meta>
    <meta property="og:image" content="https://emoji.ddiu.io/banner.png"></meta>
    <meta property="description" content="Generate your own Fluent Emojis!"></meta>
    <meta property="og:description" content="Generate your own Fluent Emojis!"></meta>
    <meta property="og:url" content="https://emoji.ddiu.io/"></meta>
    <meta name="twitter:card" content="summary_large_image"></meta>
    <meta name="twitter:creator" content="@ddiu8081"></meta>
    <link rel="icon" type="image/svg+xml" href="/favicon.svg"></link>
    <meta name="viewport" content="width=device-width, initial-scale=1.0"></meta>
    <title>Fluent Emoji Maker</title></head></svg>